<svg width="1087" height="365" viewBox="0 0 1087 365" fill="none" xmlns="http://www.w3.org/2000/svg">
<path d="M305.453 9H40.5469C18.188 9 0 27.188 0 49.5469V314.453C0 336.812 18.188 355 40.5469 355H305.453C327.812 355 346 336.812 346 314.453V49.5469C346 27.188 327.812 9 305.453 9ZM318.969 314.453C318.969 321.905 312.905 327.969 305.453 327.969H40.5469C33.0948 327.969 27.0312 321.905 27.0312 314.453V49.5469C27.0312 42.0948 33.0948 36.0312 40.5469 36.0312H305.453C312.905 36.0312 318.969 42.0948 318.969 49.5469V314.453ZM93.9336 281.34C93.9336 292.538 84.8581 301.613 73.6602 301.613C62.4622 301.613 53.3867 292.538 53.3867 281.34C53.3867 270.142 62.4622 261.066 73.6602 261.066C84.8581 261.066 93.9336 270.142 93.9336 281.34ZM156.602 198.398C184.172 225.968 199.355 262.624 199.355 301.613H172.324C172.324 236.031 118.969 182.676 53.3867 182.676V155.645C92.3761 155.645 129.032 170.828 156.602 198.398ZM273.808 208.49C286.286 237.992 292.613 269.324 292.613 301.613H265.582C265.582 184.608 170.392 89.418 53.3867 89.418V62.3867C85.6764 62.3867 117.008 68.7142 146.51 81.1924C174.996 93.2404 200.58 110.489 222.546 132.454C244.511 154.42 261.76 180.004 273.808 208.49Z" fill="url(#paint0_linear)"/>
<g filter="url(#filter0_d)">
<path d="M467.467 199.392H451.051V201.12L454.507 276H415.915L419.371 206.016L415.915 77.28H478.411C496.843 77.28 511.531 82.272 522.475 92.256C533.419 102.24 538.891 115.488 538.891 132C538.891 144.48 535.627 155.904 529.099 166.272C522.763 176.448 514.123 184.512 503.179 190.464L553.291 261.312L518.443 279.168L473.515 199.104C472.171 199.296 470.155 199.392 467.467 199.392ZM468.043 106.368H453.931L451.915 171.456H471.499C481.099 171.456 488.491 168.288 493.675 161.952C499.051 155.616 501.739 146.592 501.739 134.88C501.739 115.872 490.507 106.368 468.043 106.368ZM585.864 218.688C602.184 235.008 618.504 243.168 634.824 243.168C643.272 243.168 649.992 241.248 654.984 237.408C660.168 233.376 662.76 228.288 662.76 222.144C662.76 215.808 659.688 210.528 653.544 206.304C647.4 201.888 639.912 198.048 631.08 194.784C622.44 191.52 613.8 187.872 605.16 183.84C596.52 179.616 589.128 173.664 582.984 165.984C576.84 158.304 573.768 148.992 573.768 138.048C573.768 120.768 580.968 105.888 595.368 93.408C609.768 80.736 626.856 74.4 646.632 74.4C655.656 74.4 664.392 75.36 672.84 77.28C681.288 79.2 689.448 81.984 697.32 85.632L677.736 127.68C672.36 123.456 664.968 119.616 655.56 116.16C646.344 112.512 638.184 110.688 631.08 110.688C624.168 110.688 618.504 112.416 614.088 115.872C609.864 119.136 607.752 123.552 607.752 129.12C607.752 134.688 610.824 139.68 616.968 144.096C623.112 148.32 630.504 152.064 639.144 155.328C647.976 158.592 656.712 162.24 665.352 166.272C674.184 170.112 681.672 175.872 687.816 183.552C693.96 191.232 697.032 200.544 697.032 211.488C697.032 229.536 689.832 245.376 675.432 259.008C661.032 272.448 644.232 279.168 625.032 279.168C610.632 279.168 597.864 275.712 586.728 268.8C576.936 262.848 570.024 257.568 565.992 252.96L563.4 249.792L585.864 218.688ZM730.708 218.688C747.028 235.008 763.348 243.168 779.668 243.168C788.116 243.168 794.836 241.248 799.828 237.408C805.012 233.376 807.604 228.288 807.604 222.144C807.604 215.808 804.532 210.528 798.388 206.304C792.244 201.888 784.756 198.048 775.924 194.784C767.284 191.52 758.644 187.872 750.004 183.84C741.364 179.616 733.972 173.664 727.828 165.984C721.684 158.304 718.612 148.992 718.612 138.048C718.612 120.768 725.812 105.888 740.212 93.408C754.612 80.736 771.7 74.4 791.476 74.4C800.5 74.4 809.236 75.36 817.684 77.28C826.132 79.2 834.292 81.984 842.164 85.632L822.58 127.68C817.204 123.456 809.812 119.616 800.404 116.16C791.188 112.512 783.028 110.688 775.924 110.688C769.012 110.688 763.348 112.416 758.932 115.872C754.708 119.136 752.596 123.552 752.596 129.12C752.596 134.688 755.668 139.68 761.812 144.096C767.956 148.32 775.348 152.064 783.988 155.328C792.82 158.592 801.556 162.24 810.196 166.272C819.028 170.112 826.516 175.872 832.66 183.552C838.804 191.232 841.876 200.544 841.876 211.488C841.876 229.536 834.676 245.376 820.276 259.008C805.876 272.448 789.076 279.168 769.876 279.168C755.476 279.168 742.708 275.712 731.572 268.8C721.78 262.848 714.868 257.568 710.836 252.96L708.244 249.792L730.708 218.688ZM913.28 75.84L909.248 201.12L912.704 276H872.384L875.84 206.016L872.384 83.04L913.28 75.84ZM1036.47 203.136C1036.47 189.888 1035.32 181.056 1033.02 176.64C1030.71 172.224 1025.34 170.016 1016.89 170.016C1008.44 170.016 998.842 173.376 988.09 180.096V201.12L991.258 268.8L952.666 276L956.122 206.016C955.354 180.288 953.242 157.248 949.786 136.896L984.634 129.408C985.978 140.544 986.938 151.392 987.514 161.952C990.394 158.112 993.658 154.368 997.306 150.72C1000.95 146.88 1006.71 142.656 1014.59 138.048C1022.46 133.248 1030.71 130.848 1039.35 130.848C1048.19 130.848 1055.58 134.304 1061.53 141.216C1067.48 147.936 1070.46 157.152 1070.46 168.864L1068.73 201.12L1071.9 270.24L1033.02 277.44L1036.47 203.136Z" fill="url(#paint1_linear)"/>
</g>
<defs>
<filter id="filter0_d" x="411.915" y="74.4" width="663.983" height="216.768" filterUnits="userSpaceOnUse" color-interpolation-filters="sRGB">
<feFlood flood-opacity="0" result="BackgroundImageFix"/>
<feColorMatrix in="SourceAlpha" type="matrix" values="0 0 0 0 0 0 0 0 0 0 0 0 0 0 0 0 0 0 127 0"/>
<feOffset dy="8"/>
<feGaussianBlur stdDeviation="2"/>
<feColorMatrix type="matrix" values="0 0 0 0 0 0 0 0 0 0 0 0 0 0 0 0 0 0 0.25 0"/>
<feBlend mode="normal" in2="BackgroundImageFix" result="effect1_dropShadow"/>
<feBlend mode="normal" in="SourceGraphic" in2="effect1_dropShadow" result="shape"/>
</filter>
<linearGradient id="paint0_linear" x1="173" y1="9" x2="173" y2="355" gradientUnits="userSpaceOnUse">
<stop stop-color="#2AF598"/>
<stop offset="1" stop-color="#009EFD"/>
</linearGradient>
<linearGradient id="paint1_linear" x1="739.5" y1="0" x2="739.5" y2="365" gradientUnits="userSpaceOnUse">
<stop stop-color="#2AF599"/>
<stop offset="1" stop-color="#02A3F8"/>
</linearGradient>
</defs>
</svg>
